<svg width="159" height="31" viewBox="0 0 159 31" fill="none" xmlns="http://www.w3.org/2000/svg">
<path d="M0.0227273 23.5V0.227272H15.4318V4.28409H4.94318V9.82955H14.4091V13.8864H4.94318V23.5H0.0227273ZM63.0511 23.7841C61.7254 23.7841 60.5246 23.4432 59.4489 22.7614C58.3807 22.072 57.5322 21.0606 56.9034 19.7273C56.2822 18.3864 55.9716 16.7424 55.9716 14.7955C55.9716 12.7955 56.2936 11.1326 56.9375 9.80682C57.5814 8.47348 58.4375 7.47727 59.5057 6.81818C60.5814 6.15152 61.7595 5.81818 63.0398 5.81818C64.017 5.81818 64.8314 5.98485 65.483 6.31818C66.142 6.64394 66.6723 7.05303 67.0739 7.54545C67.483 8.0303 67.7936 8.50758 68.0057 8.97727H68.1534V0.227272H72.983V23.5H68.2102V20.7045H68.0057C67.7784 21.1894 67.4564 21.6705 67.0398 22.1477C66.6307 22.6174 66.0966 23.0076 65.4375 23.3182C64.786 23.6288 63.9905 23.7841 63.0511 23.7841ZM64.5852 19.9318C65.3655 19.9318 66.0246 19.7197 66.5625 19.2955C67.108 18.8636 67.5246 18.2614 67.8125 17.4886C68.108 16.7159 68.2557 15.8106 68.2557 14.7727C68.2557 13.7348 68.1117 12.8333 67.8239 12.0682C67.536 11.303 67.1193 10.7121 66.5739 10.2955C66.0284 9.87879 65.3655 9.67045 64.5852 9.67045C63.7898 9.67045 63.1193 9.88636 62.5739 10.3182C62.0284 10.75 61.6155 11.3485 61.3352 12.1136C61.0549 12.8788 60.9148 13.7652 60.9148 14.7727C60.9148 15.7879 61.0549 16.6856 61.3352 17.4659C61.6231 18.2386 62.036 18.8447 62.5739 19.2841C63.1193 19.7159 63.7898 19.9318 64.5852 19.9318ZM79.9517 30.0455C79.3381 30.0455 78.7623 29.9962 78.2244 29.8977C77.6941 29.8068 77.2547 29.6894 76.9062 29.5455L77.9972 25.9318C78.5653 26.1061 79.0767 26.2008 79.5312 26.2159C79.9934 26.2311 80.3911 26.125 80.7244 25.8977C81.0653 25.6705 81.3419 25.2841 81.554 24.7386L81.8381 24L75.5767 6.04545H80.6676L84.2812 18.8636H84.4631L88.1108 6.04545H93.2358L86.4517 25.3864C86.1259 26.3258 85.6828 27.1439 85.1222 27.8409C84.5691 28.5455 83.8684 29.0871 83.0199 29.4659C82.1714 29.8523 81.1487 30.0455 79.9517 30.0455ZM127.585 13.4091V23.5H122.744V6.04545H127.358V9.125H127.562C127.949 8.10985 128.597 7.30682 129.506 6.71591C130.415 6.11742 131.517 5.81818 132.812 5.81818C134.025 5.81818 135.081 6.08333 135.983 6.61364C136.884 7.14394 137.585 7.90151 138.085 8.88636C138.585 9.86364 138.835 11.0303 138.835 12.3864V23.5H133.994V13.25C134.002 12.1818 133.729 11.3485 133.176 10.75C132.623 10.1439 131.862 9.84091 130.892 9.84091C130.241 9.84091 129.665 9.98106 129.165 10.2614C128.672 10.5417 128.286 10.9508 128.006 11.4886C127.733 12.0189 127.593 12.6591 127.585 13.4091ZM150.605 23.8409C148.81 23.8409 147.264 23.4773 145.969 22.75C144.681 22.0152 143.688 20.9773 142.991 19.6364C142.295 18.2879 141.946 16.6932 141.946 14.8523C141.946 13.0568 142.295 11.4811 142.991 10.125C143.688 8.76894 144.67 7.71212 145.935 6.95454C147.207 6.19697 148.7 5.81818 150.412 5.81818C151.563 5.81818 152.635 6.00379 153.628 6.375C154.628 6.73864 155.499 7.28788 156.241 8.02273C156.991 8.75758 157.575 9.68182 157.991 10.7955C158.408 11.9015 158.616 13.197 158.616 14.6818V16.0114H143.878V13.0114H154.06C154.06 12.3144 153.908 11.697 153.605 11.1591C153.302 10.6212 152.882 10.2008 152.344 9.89773C151.813 9.58712 151.196 9.43182 150.491 9.43182C149.757 9.43182 149.105 9.60227 148.537 9.94318C147.976 10.2765 147.537 10.7273 147.219 11.2955C146.901 11.8561 146.738 12.4811 146.73 13.1705V16.0227C146.73 16.8864 146.889 17.6326 147.207 18.2614C147.533 18.8902 147.991 19.375 148.582 19.7159C149.173 20.0568 149.874 20.2273 150.685 20.2273C151.223 20.2273 151.715 20.1515 152.162 20C152.609 19.8485 152.991 19.6212 153.31 19.3182C153.628 19.0152 153.87 18.6439 154.037 18.2045L158.514 18.5C158.287 19.5758 157.821 20.5152 157.116 21.3182C156.42 22.1136 155.518 22.7348 154.412 23.1818C153.313 23.6212 152.045 23.8409 150.605 23.8409Z" fill="white"/>
<path d="M25.2557 23.8409C23.4905 23.8409 21.964 23.4659 20.6761 22.7159C19.3958 21.9583 18.4072 20.9053 17.7102 19.5568C17.0133 18.2008 16.6648 16.6288 16.6648 14.8409C16.6648 13.0379 17.0133 11.4621 17.7102 10.1136C18.4072 8.75758 19.3958 7.70454 20.6761 6.95454C21.964 6.19697 23.4905 5.81818 25.2557 5.81818C27.0208 5.81818 28.5436 6.19697 29.8239 6.95454C31.1117 7.70454 32.1042 8.75758 32.8011 10.1136C33.4981 11.4621 33.8466 13.0379 33.8466 14.8409C33.8466 16.6288 33.4981 18.2008 32.8011 19.5568C32.1042 20.9053 31.1117 21.9583 29.8239 22.7159C28.5436 23.4659 27.0208 23.8409 25.2557 23.8409ZM25.2784 20.0909C26.0814 20.0909 26.7519 19.8636 27.2898 19.4091C27.8277 18.947 28.233 18.3182 28.5057 17.5227C28.786 16.7273 28.9261 15.822 28.9261 14.8068C28.9261 13.7917 28.786 12.8864 28.5057 12.0909C28.233 11.2955 27.8277 10.6667 27.2898 10.2045C26.7519 9.74242 26.0814 9.51136 25.2784 9.51136C24.4678 9.51136 23.786 9.74242 23.233 10.2045C22.6875 10.6667 22.2746 11.2955 21.9943 12.0909C21.7216 12.8864 21.5852 13.7917 21.5852 14.8068C21.5852 15.822 21.7216 16.7273 21.9943 17.5227C22.2746 18.3182 22.6875 18.947 23.233 19.4091C23.786 19.8636 24.4678 20.0909 25.2784 20.0909ZM44.8807 23.8409C43.1155 23.8409 41.589 23.4659 40.3011 22.7159C39.0208 21.9583 38.0322 20.9053 37.3352 19.5568C36.6383 18.2008 36.2898 16.6288 36.2898 14.8409C36.2898 13.0379 36.6383 11.4621 37.3352 10.1136C38.0322 8.75758 39.0208 7.70454 40.3011 6.95454C41.589 6.19697 43.1155 5.81818 44.8807 5.81818C46.6458 5.81818 48.1686 6.19697 49.4489 6.95454C50.7367 7.70454 51.7292 8.75758 52.4261 10.1136C53.1231 11.4621 53.4716 13.0379 53.4716 14.8409C53.4716 16.6288 53.1231 18.2008 52.4261 19.5568C51.7292 20.9053 50.7367 21.9583 49.4489 22.7159C48.1686 23.4659 46.6458 23.8409 44.8807 23.8409ZM44.9034 20.0909C45.7064 20.0909 46.3769 19.8636 46.9148 19.4091C47.4527 18.947 47.858 18.3182 48.1307 17.5227C48.411 16.7273 48.5511 15.822 48.5511 14.8068C48.5511 13.7917 48.411 12.8864 48.1307 12.0909C47.858 11.2955 47.4527 10.6667 46.9148 10.2045C46.3769 9.74242 45.7064 9.51136 44.9034 9.51136C44.0928 9.51136 43.411 9.74242 42.858 10.2045C42.3125 10.6667 41.8996 11.2955 41.6193 12.0909C41.3466 12.8864 41.2102 13.7917 41.2102 14.8068C41.2102 15.822 41.3466 16.7273 41.6193 17.5227C41.8996 18.3182 42.3125 18.947 42.858 19.4091C43.411 19.8636 44.0928 20.0909 44.9034 20.0909Z" fill="#FF0A0A"/>
<path d="M111.006 23.8409C109.241 23.8409 107.714 23.4659 106.426 22.7159C105.146 21.9583 104.157 20.9053 103.46 19.5568C102.763 18.2008 102.415 16.6288 102.415 14.8409C102.415 13.0379 102.763 11.4621 103.46 10.1136C104.157 8.75758 105.146 7.70454 106.426 6.95454C107.714 6.19697 109.241 5.81818 111.006 5.81818C112.771 5.81818 114.294 6.19697 115.574 6.95454C116.862 7.70454 117.854 8.75758 118.551 10.1136C119.248 11.4621 119.597 13.0379 119.597 14.8409C119.597 16.6288 119.248 18.2008 118.551 19.5568C117.854 20.9053 116.862 21.9583 115.574 22.7159C114.294 23.4659 112.771 23.8409 111.006 23.8409ZM111.028 20.0909C111.831 20.0909 112.502 19.8636 113.04 19.4091C113.578 18.947 113.983 18.3182 114.256 17.5227C114.536 16.7273 114.676 15.822 114.676 14.8068C114.676 13.7917 114.536 12.8864 114.256 12.0909C113.983 11.2955 113.578 10.6667 113.04 10.2045C112.502 9.74242 111.831 9.51136 111.028 9.51136C110.218 9.51136 109.536 9.74242 108.983 10.2045C108.438 10.6667 108.025 11.2955 107.744 12.0909C107.472 12.8864 107.335 13.7917 107.335 14.8068C107.335 15.822 107.472 16.7273 107.744 17.5227C108.025 18.3182 108.438 18.947 108.983 19.4091C109.536 19.8636 110.218 20.0909 111.028 20.0909Z" fill="#FF0909"/>
</svg>
